<?xml version="1.0" encoding="UTF-8"?>
<svg width="21px" height="21px" viewBox="0 0 21 21" version="1.1" xmlns="http://www.w3.org/2000/svg" xmlns:xlink="http://www.w3.org/1999/xlink">
    <title>Facebook-Logo@2x</title>
    <defs>
        <polygon id="path-1" points="0.0196555869 0.0131037246 20.9659593 0.0131037246 20.9659593 20.9659593 0.0196555869 20.9659593"></polygon>
    </defs>
    <g id="Page-1" stroke="none" stroke-width="1" fill="none" fill-rule="evenodd">
        <g id="Air-Miles-App-Landing-page" transform="translate(-1216.000000, -2382.000000)">
            <g id="Facebook-Logo" transform="translate(1216.000000, 2382.000000)">
                <g id="Group-3">
                    <mask id="mask-2" fill="white">
                        <use xlink:href="#path-1"></use>
                    </mask>
                    <g id="Clip-2"></g>
                    <path d="M19.8089004,20.9659593 C20.447707,20.9659593 20.9659593,20.447707 20.9659593,19.8089004 L20.9659593,1.15705888 C20.9659593,0.517924714 20.447707,2.78704263e-14 19.8089004,2.78704263e-14 L1.15705888,2.78704263e-14 C0.517924714,2.78704263e-14 2.78704263e-14,0.517924714 2.78704263e-14,1.15705888 L2.78704263e-14,19.8089004 C2.78704263e-14,20.447707 0.517924714,20.9659593 1.15705888,20.9659593 L19.8089004,20.9659593" id="Fill-1" fill="#FFFFFF" mask="url(#mask-2)"></path>
                </g>
                <path d="M14.8413722,21 L14.8413722,12.7892993 L17.4950916,12.7892993 L17.8925116,9.58936558 L14.8413722,9.58936558 L14.8413722,7.54629783 C14.8413722,6.62000994 15.0892015,5.98857048 16.3682177,5.98857048 L18,5.9879079 L18,3.12589034 C17.7174044,3.08679808 16.7493709,3 15.6224971,3 C13.2701917,3 11.6604175,4.49113798 11.6604175,7.22958423 L11.6604175,9.58936558 L9,9.58936558 L9,12.7892993 L11.6604175,12.7892993 L11.6604175,21 L14.8413722,21" id="Fill-4" fill="#00ADEF"></path>
            </g>
        </g>
    </g>
</svg>