<?xml version="1.0" encoding="UTF-8"?>
<svg width="21px" height="21px" viewBox="0 0 21 21" version="1.1" xmlns="http://www.w3.org/2000/svg" xmlns:xlink="http://www.w3.org/1999/xlink">
    <title>Shape@2x</title>
    <g id="Page-1" stroke="none" stroke-width="1" fill="none" fill-rule="evenodd">
        <g id="Air-Miles-App-Landing-page" transform="translate(-1250.000000, -2382.000000)" fill="#FFFFFF" fill-rule="nonzero">
            <path d="M1257,2392.5 C1257,2390.56723 1258.56658,2389 1260.49958,2389 C1262.43258,2389 1264,2390.56723 1264,2392.5 C1264,2394.43277 1262.43258,2396 1260.49958,2396 C1258.56658,2396 1257,2394.43277 1257,2392.5 M1255,2392.5 C1255,2395.53766 1257.46234,2398 1260.5,2398 C1263.53766,2398 1266,2395.53766 1266,2392.5 C1266,2389.46234 1263.53766,2387 1260.5,2387 C1257.46234,2387 1255,2389.46234 1255,2392.5 M1265,2386.4994 C1264.99967,2387.32783 1265.67097,2387.99967 1266.4994,2388 C1267.32783,2388.00033 1267.99967,2387.32903 1268,2386.5006 C1268.00033,2385.67217 1267.32903,2385.00033 1266.5006,2385 L1266.5,2385 C1265.67197,2385.00039 1265.00072,2385.67137 1265,2386.4994 M1256.31057,2400.9397 C1255.2997,2400.89366 1254.75026,2400.72529 1254.38513,2400.58304 C1253.90105,2400.39459 1253.55566,2400.17014 1253.19252,2399.80751 C1252.82938,2399.44487 1252.6046,2399.09982 1252.41697,2398.61576 C1252.27464,2398.2508 1252.10625,2397.70121 1252.0603,2396.69036 C1252.01004,2395.59748 1252,2395.26919 1252,2392.50041 C1252,2389.73164 1252.01087,2389.40426 1252.0603,2388.31047 C1252.10634,2387.29962 1252.27596,2386.75111 1252.41697,2386.38507 C1252.60543,2385.90101 1252.82988,2385.55563 1253.19252,2385.19249 C1253.55517,2384.82936 1253.90022,2384.60458 1254.38513,2384.41696 C1254.7501,2384.27463 1255.2997,2384.10625 1256.31057,2384.0603 C1257.40348,2384.01004 1257.73178,2384 1260.49938,2384 C1263.26698,2384 1263.59561,2384.01087 1264.68943,2384.0603 C1265.7003,2384.10634 1266.24883,2384.27596 1266.61487,2384.41696 C1267.09895,2384.60458 1267.44434,2384.82986 1267.80748,2385.19249 C1268.17062,2385.55513 1268.39457,2385.90101 1268.58303,2386.38507 C1268.72536,2386.75003 1268.89375,2387.29962 1268.9397,2388.31047 C1268.98996,2389.40426 1269,2389.73164 1269,2392.50041 C1269,2395.26919 1268.98996,2395.59657 1268.9397,2396.69036 C1268.89366,2397.70121 1268.72445,2398.25063 1268.58303,2398.61576 C1268.39457,2399.09982 1268.17012,2399.4452 1267.80748,2399.80751 C1267.44483,2400.16981 1267.09895,2400.39459 1266.61487,2400.58304 C1266.2499,2400.72537 1265.7003,2400.89375 1264.68943,2400.9397 C1263.59652,2400.98996 1263.26822,2401 1260.49938,2401 C1257.73054,2401 1257.40315,2400.98996 1256.31057,2400.9397 M1256.17131,2382.06359 C1255.05347,2382.11449 1254.28963,2382.29173 1253.62256,2382.55129 C1252.93172,2382.81934 1252.34689,2383.17894 1251.76247,2383.7624 C1251.17806,2384.34587 1250.81937,2384.9316 1250.55131,2385.62242 C1250.29174,2386.28988 1250.1145,2387.05327 1250.06359,2388.17106 C1250.01184,2389.29061 1250,2389.64854 1250,2392.5 C1250,2395.35146 1250.01184,2395.70939 1250.06359,2396.82894 C1250.1145,2397.94681 1250.29174,2398.71012 1250.55131,2399.37758 C1250.81937,2400.06798 1251.17815,2400.65438 1251.76247,2401.2376 C1252.3468,2401.82081 1252.93172,2402.17991 1253.62256,2402.44871 C1254.29089,2402.70827 1255.05347,2402.88551 1256.17131,2402.93641 C1257.29149,2402.98732 1257.64884,2403 1260.50042,2403 C1263.352,2403 1263.70994,2402.98816 1264.82953,2402.93641 C1265.94745,2402.88551 1266.71079,2402.70827 1267.37828,2402.44871 C1268.0687,2402.17991 1268.65395,2401.82106 1269.23837,2401.2376 C1269.82278,2400.65413 1270.18072,2400.06798 1270.44953,2399.37758 C1270.7091,2398.71012 1270.88718,2397.94673 1270.93725,2396.82894 C1270.98816,2395.70855 1271,2395.35146 1271,2392.5 C1271,2389.64854 1270.98816,2389.29061 1270.93725,2388.17106 C1270.88634,2387.05319 1270.7091,2386.28946 1270.44953,2385.62242 C1270.18072,2384.93202 1269.82185,2384.34679 1269.23837,2383.7624 C1268.65488,2383.17802 1268.0687,2382.81934 1267.37912,2382.55129 C1266.71079,2382.29173 1265.94737,2382.11365 1264.83037,2382.06359 C1263.71078,2382.01268 1263.35284,2382 1260.50126,2382 C1257.64968,2382 1257.29149,2382.01184 1256.17131,2382.06359" id="Shape"></path>
        </g>
    </g>
</svg>