<?xml version="1.0" encoding="UTF-8"?>
<svg width="73px" height="73px" viewBox="0 0 73 73" version="1.1" xmlns="http://www.w3.org/2000/svg" xmlns:xlink="http://www.w3.org/1999/xlink">
    <title>Logo@2x</title>
    <defs>
        <path d="M51.5274642,0.157004175 C49.8918598,0.463490548 48.3623962,1.18496199 47.0856793,2.25226221 C42.6253965,1.1830931 38.010683,3.29215091 35.9001625,7.36436758 C35.0358209,7.24535328 34.1576076,7.27275463 33.3023668,7.44542205 C32.5143696,7.60309616 31.7525292,7.87105004 31.039326,8.24137694 C26.2208232,3.48169223 18.6012997,3.08550628 13.3151452,7.31978762 C10.0610114,3.45309895 5.02561149,1.56386386 0.0311282513,2.33574831 C5.99913907,12.522166 17.0631515,18.6257656 28.8628252,18.2411112 C40.6624989,17.8564569 51.3055046,11.0452361 56.5974213,0.491759133 C55.6058034,0.189229775 54.5751605,0.03384137 53.5384256,0.0305592025 C52.8654888,-0.0111711336 52.1899744,0.0310315023 51.5274642,0.15619363" id="path-1"></path>
    </defs>
    <g id="Page-1" stroke="none" stroke-width="1" fill="none" fill-rule="evenodd">
        <g id="Air-Miles-App-Landing-page" transform="translate(-473.000000, -30.000000)">
            <g id="Desktop_Logo" transform="translate(473.000000, 30.000000)">
                <path d="M72.1117297,36.4574897 C72.1189404,50.9222847 63.4120161,63.9671114 50.0510164,69.5091358 C36.6900168,75.0511601 21.3061898,71.9989638 11.0730511,61.7757932 C0.839912299,51.5526226 -2.22727542,36.1717775 3.30172492,22.8053831 C8.83072526,9.4389886 21.8670602,0.719355146 36.3318553,0.712448455 C45.8186231,0.702358165 54.920299,4.46387672 61.6320324,11.1684647 C68.3437658,17.8730526 72.1149719,26.9707166 72.1149719,36.4574897" id="Path_138" fill="#00ADEE" fill-rule="nonzero"></path>
                <path d="M36.4955853,72.9490223 C16.351274,72.93738 0.0305204416,56.5977524 0.0421542754,36.4534411 C0.0538005541,16.3091297 16.3934264,-0.0116256361 36.5377377,5.95847599e-06 C56.682049,0.0116499932 73.0028062,16.351274 72.9911769,36.4955853 C72.9420752,56.6243408 56.6243841,72.9231868 36.4955853,72.9490223 M36.4955853,1.17285817 C22.2085071,1.17121895 9.32731527,9.77628576 3.85875128,22.9753545 C-1.60981272,36.1744231 1.41124946,51.3680225 11.5131598,61.471092 C21.6150702,71.5741616 36.8083228,74.596967 50.0080189,69.1299175 C63.2077149,63.6628681 71.8142598,50.7826636 71.8142598,36.4955853 C71.7972774,16.9944205 55.9926975,1.18984059 36.4915326,1.17285817" id="Path_139" fill="#FFFFFF" fill-rule="nonzero"></path>
                <path d="M5.57249476,26.0622541 C5.38464853,25.9509877 5.31203182,25.7152465 5.40471201,25.517568 L5.61383254,24.9307337 C5.67895491,24.7310083 5.86495897,24.5956732 6.07503247,24.5951682 L12.7368993,24.6373165 C12.86481,24.6181479 12.9922874,24.6745642 13.0641119,24.7821274 C13.1359363,24.8896905 13.1391905,25.0290559 13.0724648,25.1398542 L12.9046821,25.5589058 C12.8395597,25.7586311 12.6535556,25.8939662 12.4434821,25.8944713 L10.8929101,25.852323 L10.0548069,28.1988499 L11.270624,29.1625875 C11.4584702,29.2738538 11.5310869,29.509595 11.4384067,29.7072735 L11.270624,30.1263251 C11.2526029,30.2465455 11.1672399,30.3457813 11.0510633,30.3815678 C10.9348866,30.4173544 10.8084811,30.3833508 10.7259379,30.2941079 L5.57249476,26.0622541 Z M9.8043486,25.7688369 L7.79338722,25.7307413 C7.37433561,25.6885929 6.65862465,25.6051068 6.65862465,25.6051068 L6.65862465,25.6051068 C6.65862465,25.6051068 7.24545901,25.9820101 7.58021397,26.233279 L9.13078596,27.4904338 L9.8043486,25.7688369 Z" id="Path_140" fill="#FFFFFF" fill-rule="nonzero"></path>
                <path d="M10.4333313,16.9274154 C10.3343499,16.8684159 10.2675528,16.7676233 10.2517866,16.6534757 C10.2360203,16.5393281 10.2729944,16.4242025 10.3522768,16.340581 L10.645694,16.0050155 C10.7046934,15.9060341 10.805486,15.839237 10.9196336,15.8234708 C11.0337812,15.8077045 11.1489069,15.8446787 11.2325284,15.923961 L16.176851,19.7789116 C16.2758324,19.837911 16.3426295,19.9387036 16.3583957,20.0528512 C16.3741619,20.1669988 16.3371878,20.2821245 16.2579054,20.3657459 L15.9644883,20.7426492 C15.9054889,20.8416306 15.8046962,20.9084277 15.6905486,20.924194 C15.576401,20.9399602 15.4612754,20.9029861 15.3776539,20.8237037 L10.4333313,16.9274154 Z" id="Path_141" fill="#FFFFFF" fill-rule="nonzero"></path>
                <path d="M16.3000538,10.8102346 C16.2207714,10.7266131 16.1837973,10.6114874 16.1995635,10.4973398 C16.2153298,10.3831922 16.2821268,10.2823996 16.3811082,10.2234002 L17.973018,9.13402814 C18.329471,8.85021879 18.7448802,8.64971461 19.1888351,8.54719378 C20.0119945,8.37922278 20.8516163,8.74852646 21.2840931,9.4687831 C21.7600872,10.1350566 21.8090182,11.0161303 21.4097275,11.7310133 L21.4097275,11.7310133 C21.5387419,11.7790167 21.6646228,11.835054 21.7866308,11.8987961 L23.9653749,12.9881682 C24.2587921,13.1138026 24.2587921,13.3650714 24.0075233,13.5750025 L23.5463233,13.8684197 C23.3721089,13.9857783 23.1486869,14.0018252 22.959489,13.910568 L20.6129621,12.6534132 L19.6070761,13.365882 L20.8642309,15.2098712 C20.9447266,15.2929484 20.9825129,15.4084472 20.9666856,15.5230372 C20.9508582,15.6376273 20.8831782,15.7385589 20.7831765,15.7967055 L20.4062732,16.0479744 C20.1971527,16.2157571 19.9872216,16.1736088 19.8194388,15.9223399 L16.3000538,10.8102346 Z M19.9475049,11.8574583 C20.2125638,11.7080846 20.3981867,11.4493442 20.4547566,11.1503985 C20.5113266,10.8514527 20.4330763,10.5427792 20.2409221,10.3068863 C20.0493921,9.93895045 19.6423729,9.73658694 19.233415,9.80596969 C18.9795301,9.87906182 18.7389931,9.99235228 18.5209462,10.1415352 L17.7249913,10.6862212 L18.9821462,12.5302104 L19.9475049,11.8574583 Z" id="Path_142" fill="#FFFFFF" fill-rule="nonzero"></path>
                <path d="M31.2578455,4.10621941 C31.2437654,3.99133759 31.2833657,3.87637111 31.3652073,3.79452954 C31.4470488,3.71268798 31.5620153,3.67308772 31.6768971,3.68716781 L32.3050693,3.64501948 C32.5175413,3.62774911 32.7182108,3.7449142 32.807607,3.93843666 L34.2738823,7.03877011 C34.4416651,7.45782172 34.6929339,8.04465608 34.6929339,8.04465608 L34.6929339,8.04465608 C34.6929339,8.04465608 34.8607167,7.41648394 34.9863511,6.99743233 L36.0757232,3.77146446 C36.127061,3.55631978 36.3158641,3.40202554 36.5369231,3.39456117 L37.1650953,3.35241285 C37.3963372,3.32977733 37.6024264,3.49819823 37.6262952,3.72931613 L38.5065467,9.97051027 C38.548695,10.2217791 38.4254922,10.3895619 38.1296434,10.4317102 L37.6684435,10.4738585 C37.4372016,10.496494 37.2311123,10.3280731 37.2072436,10.0969552 L36.7047059,6.53542186 C36.6625575,6.07422193 36.6236514,5.44604979 36.6236514,5.44604979 L36.6236514,5.44604979 C36.6236514,5.44604979 36.4558686,6.15851858 36.3302342,6.58081236 L35.4499827,9.05297367 C35.384457,9.25885729 35.2035917,9.40666468 34.9887828,9.42987696 L34.5697311,9.47202528 C34.3548407,9.50059416 34.1479389,9.37979021 34.0671934,9.1786081 L32.8943353,6.83208122 C32.7265525,6.41302961 32.4331353,5.74270915 32.4331353,5.74270915 L32.4331353,5.74270915 C32.4331353,5.74270915 32.4752837,6.37088128 32.4752837,6.83208122 L32.4331353,10.3936146 C32.4472154,10.5084964 32.4076152,10.6234629 32.3257736,10.7053045 C32.243932,10.787146 32.1289656,10.8267463 32.0140837,10.8126662 L31.5528838,10.8548145 C31.2594666,10.8548145 31.1338322,10.7291801 31.1338322,10.4357629 L31.2578455,4.10621941 Z" id="Path_143" fill="#FFFFFF" fill-rule="nonzero"></path>
                <path d="M45.1692241,5.02780873 C45.2502786,4.77653987 45.4204929,4.65090545 45.6717618,4.73439155 L46.1329617,4.86002598 C46.2417526,4.87972368 46.334902,4.9495324 46.3843458,5.04841999 C46.4337896,5.14730759 46.4337469,5.2637124 46.3842306,5.36256369 L44.5823897,11.3541101 C44.5013353,11.6053789 44.3311209,11.7310133 44.079852,11.6475272 L43.6186521,11.5218928 C43.5098613,11.5021951 43.4167118,11.4323864 43.367268,11.3334988 C43.3178242,11.2346112 43.3178669,11.1182064 43.3673832,11.0193551 L45.1692241,5.02780873 Z" id="Path_144" fill="#FFFFFF" fill-rule="nonzero"></path>
                <path d="M52.920463,8.25458715 C52.9792247,8.15730987 53.0755793,8.08864515 53.1867089,8.06485361 C53.2978384,8.04106207 53.4138596,8.06425959 53.5072973,8.12895272 L53.8842006,8.38022158 C53.9814779,8.43898332 54.0501426,8.53533791 54.0739342,8.64646744 C54.0977257,8.75759698 54.0745282,8.87361821 54.0098351,8.96705594 L50.9508394,13.6179614 L53.1717318,15.0842367 C53.2838176,15.1286597 53.3662955,15.2261485 53.3915358,15.3440449 C53.416776,15.4619412 53.3814404,15.5846526 53.2973663,15.6710711 L53.1295835,15.9223399 C53.0851606,16.0344257 52.9876717,16.1169036 52.8697754,16.1421439 C52.751879,16.1673841 52.6291677,16.1320485 52.5427492,16.0479744 L49.6093879,14.1204991 C49.5121106,14.0617374 49.4434459,13.9653828 49.4196544,13.8542532 C49.3958628,13.7431237 49.4190604,13.6271025 49.4837535,13.5336647 L52.920463,8.25458715 Z" id="Path_145" fill="#FFFFFF" fill-rule="nonzero"></path>
                <path d="M61.2593468,15.2520195 C61.3429683,15.1727371 61.4580939,15.135763 61.5722415,15.1515292 C61.6863891,15.1672955 61.7871817,15.2340926 61.8461811,15.333074 L63.8992909,18.0565041 C63.9785732,18.1401256 64.0155473,18.2552513 63.9997811,18.3693989 C63.9840149,18.4835464 63.9172178,18.5843391 63.8182364,18.6433385 L63.6091159,18.8111212 C63.5254944,18.8904036 63.4103687,18.9273777 63.2962211,18.9116115 C63.1820735,18.8958452 63.0812809,18.8290482 63.0222815,18.7300668 L61.4717095,16.6769571 L60.0054341,17.8117196 L61.1782923,19.4036294 C61.2575747,19.4872509 61.2945488,19.6023765 61.2787826,19.7165241 C61.2630163,19.8306717 61.1962192,19.9314643 61.0972378,19.9904638 L60.8881173,20.1582465 C60.8044958,20.2375289 60.6893702,20.274503 60.5752226,20.2587368 C60.461075,20.2429705 60.3602824,20.1761734 60.301283,20.077192 L59.1284248,18.4852823 L57.6200011,19.6200448 L59.2540592,21.798789 C59.3333416,21.8824104 59.3703157,21.9975361 59.3545495,22.1116837 C59.3387832,22.2258313 59.2719861,22.3266239 59.1730047,22.3856233 L58.9638842,22.5534061 C58.8802627,22.6326885 58.7651371,22.6696626 58.6509895,22.6538963 C58.5368419,22.6381301 58.4360493,22.571333 58.3770499,22.4723516 L56.2404541,19.623287 C56.1611717,19.5396655 56.1241976,19.4245399 56.1399638,19.3103923 C56.15573,19.1962447 56.2225271,19.0954521 56.3215085,19.0364527 L61.2593468,15.2520195 Z" id="Path_146" fill="#FFFFFF" fill-rule="nonzero"></path>
                <path d="M61.6362501,26.3135229 L62.0131534,26.4391573 C62.2644222,26.5202118 62.3487189,26.6904262 62.2644222,26.9838434 C62.0764314,27.4649682 62.0480166,27.9937676 62.1833677,28.492267 C62.3932988,29.1204392 62.8115399,29.4138564 63.2727398,29.2460736 C64.5696113,28.8691703 63.3148881,25.7680263 65.4514839,25.0977059 C66.667301,24.7208026 67.7145247,25.4746091 68.1327658,26.7739123 C68.314089,27.4018224 68.328616,28.0661514 68.1749141,28.7013876 C68.1505822,28.8089928 68.0826755,28.9016701 67.9874041,28.9572963 C67.8921326,29.0129226 67.7780454,29.0265062 67.6723764,28.9948047 L67.2954731,28.9137503 C66.9599076,28.871602 66.9599076,28.6624814 67.0020559,28.4112126 C67.1291918,27.9882697 67.1291918,27.537284 67.0020559,27.1143411 C66.7929354,26.4861689 66.3738838,26.1927517 65.9126839,26.3183862 C64.6555291,26.6952895 65.9548322,29.7542851 63.7760881,30.4246056 C63.202446,30.5953735 62.5833067,30.515062 62.0722185,30.2035886 C61.5611302,29.8921153 61.2059655,29.378655 61.0948062,28.7905475 C60.8659718,28.0371301 60.8807216,27.2307142 61.1369545,26.4861689 C61.1791029,26.3183862 61.3047373,26.1927517 61.6394922,26.3183862" id="Path_147" fill="#FFFFFF" fill-rule="nonzero"></path>
                <path d="M55.1000177,26.4813057 C55.1000177,26.4813057 55.1000177,25.517568 53.6750801,25.0985164 L53.6750801,25.0985164 C53.6329318,25.0985164 53.5940256,25.0563681 53.5494457,25.0563681 C53.1303941,24.9753136 52.7956391,24.9307337 52.7956391,24.9307337 C52.7524774,24.7946617 52.7252767,24.6540344 52.7145846,24.5116821 C52.7114668,24.2190272 52.783468,23.9304643 52.9237052,23.6735788 C52.947121,23.6525674 52.9621006,23.6237605 52.9658535,23.5925244 L53.046908,23.5114699 L53.046908,23.5114699 C53.1955102,23.3180164 53.2829996,23.0846171 53.2981768,22.8411494 L53.2981768,22.7990011 C53.3792313,22.0451946 52.6278564,21.3327258 51.8319015,20.8293775 C49.8622779,19.4044399 44.4989036,17.0579131 44.4989036,17.0579131 C43.9120693,16.8066442 42.6970628,16.4297409 42.2366734,16.7223476 L42.2366734,16.7223476 C42.1945251,16.7223476 42.1945251,16.7644959 42.1556189,16.7644959 C42.1443737,16.7642731 42.1335232,16.7686422 42.12557,16.7765953 C42.1176169,16.7845485 42.1132479,16.795399 42.1134706,16.8066442 C42.1134706,16.8487925 42.1556189,16.8487925 42.1945251,16.8876987 C42.3716097,16.9317101 42.5410326,17.0022118 42.6970628,17.0968192 C42.7392111,17.0968192 42.7392111,17.1389675 42.7781172,17.1389675 L42.7781172,17.1389675 C43.4464866,17.5314962 44.0901837,17.9645978 44.7055925,18.435839 L44.7055925,18.435839 C48.1836398,20.9080003 48.1836398,22.1230068 48.1836398,22.1230068 C48.4475353,23.2776162 48.0019331,24.4788325 47.0488772,25.1820025 L47.0488772,25.1820025 C46.8778895,25.276627 46.694571,25.3470082 46.5041912,25.391123 C45.9131549,25.5311867 45.2992893,25.5455461 44.7023503,25.4332714 C43.94317,25.2482201 43.1736968,25.1082913 42.3979718,25.0142198 L42.1467029,25.0142198 C41.8532858,24.9720714 41.4342341,25.0142198 41.3085997,25.1820025 C41.2763299,25.2153858 41.2608438,25.2615463 41.2664514,25.3076369 L41.2664514,25.3076369 C41.3073891,26.0718424 41.5856229,26.8042603 42.0624063,27.402895 L42.1045546,27.4450433 C42.1856091,27.5260978 42.2723374,27.6541638 42.3558235,27.7384605 C42.8642893,28.2857358 43.4416247,28.7647145 44.0733677,29.163398 L44.0733677,29.163398 C44.2496451,29.2453541 44.4178874,29.343586 44.5759054,29.4568152 L44.5759054,29.4568152 C44.6224757,29.4999942 44.6809169,29.5282266 44.7436881,29.5378697 L44.7436881,29.5378697 C45.022061,29.6960799 45.3173308,29.8225076 45.6239397,29.914773 C45.7024476,29.9567052 45.7967005,29.9567052 45.8752085,29.914773 C45.9173568,29.914773 45.956263,29.8726247 46.0008429,29.8337185 C46.1686257,29.6659358 46.4620429,29.4568152 46.7133117,29.2055464 C46.8892595,29.0763005 47.0570891,28.9363522 47.2158494,28.7864948 C47.2878505,28.7485596 47.357667,28.7066156 47.42497,28.6608603 C47.8212948,28.4917124 48.2523839,28.4200031 48.6821248,28.4517398 C48.9333936,28.4517398 49.1846625,28.4938881 49.3524453,28.4938881 C49.5615658,28.5360365 49.7293485,28.5360365 49.8971313,28.5749426 C50.3650526,28.7072733 50.7863502,28.9684778 51.1129483,29.3287492 C51.2390985,29.4862623 51.351373,29.6544029 51.4485138,29.8312869 L51.5295683,29.9990696 C51.9132504,31.0139382 52.0426512,32.1073051 51.9064716,33.1836997 C51.8643233,33.3093341 51.7386888,34.105289 51.5709061,34.9012439 C51.3196372,35.9484677 50.8584373,37.9602396 51.4898516,38.710804 L51.4898516,38.710804 C51.5319999,38.7529523 51.5319999,38.7918584 51.5709061,38.8364384 C51.5821513,38.8362157 51.5930018,38.8405847 51.600955,38.8485379 C51.6089081,38.856491 51.6132771,38.8673415 51.6130544,38.8785867 C51.6552027,38.8785867 51.6941089,38.7529523 51.6941089,38.710804 L51.6941089,38.6686557 C51.6941089,38.6265073 51.7362572,38.5430212 51.7362572,38.5008729 L51.7362572,38.5008729 C51.7784055,38.2917524 51.9040399,37.9983352 51.987526,37.704918 C52.115865,37.3856563 52.270113,37.0774314 52.448726,36.7833287 C52.6578465,36.4064254 52.8256293,36.0708599 52.9512637,35.8617394 C52.9970089,35.79443 53.0389526,35.7246141 53.0768981,35.6526189 C53.2315086,35.4388642 53.3715108,35.2149148 53.4959497,34.9822984 C53.6858708,34.7022543 53.8538828,34.4079622 53.9984874,34.1020469 C54.1662702,33.7664814 54.3340529,33.4317264 54.4596874,33.1383092 C54.6271999,32.7195278 54.7528344,32.3842325 54.8365906,32.1324233 C54.9176451,31.8811544 54.9622251,31.7133716 54.9622251,31.7133716 C55.007296,31.4924862 55.0344028,31.2683132 55.0432795,31.0430512 C55.0871166,30.5754234 55.0298959,30.1038365 54.8754968,29.6602619 C54.7923316,29.4061019 54.6485009,29.1760284 54.4564452,28.9899415 C53.7861247,28.4452554 53.4505592,28.1518383 53.4505592,28.1518383 C53.2827765,27.9427177 53.4505592,27.8584211 53.4505592,27.8584211 C53.5386993,27.787069 53.6377794,27.7304126 53.7439764,27.6906383 C53.9003874,27.5967833 54.0696948,27.5263296 54.2465141,27.4815178 C54.5820796,27.4004633 54.5399313,27.8584211 54.5399313,27.8584211 C54.9168346,27.6071522 54.9589829,27.3972212 54.9589829,27.2715867 C54.9563451,27.2133959 54.9420104,27.156333 54.9168346,27.103804 C55.0595403,26.9277969 55.1205565,26.6993544 55.0846173,26.4756318 L55.1000177,26.4813057 Z" id="Path_148" fill="#FFFFFF" fill-rule="nonzero"></path>
                <path d="M48.1439231,39.9314843 C48.1439231,39.9314843 48.1439231,39.5124327 47.5570888,39.3446499 L47.5149404,39.3446499 C47.4049303,39.3185526 47.2924219,39.3044211 47.1793749,39.3025016 C47.1793749,39.2603533 47.1372266,39.1768672 47.1372266,39.1347189 C47.1345299,39.0044871 47.1622852,38.8754253 47.2182811,38.7578156 C47.2453031,38.7308013 47.2723212,38.7037831 47.2993355,38.6767611 L47.2993355,38.6767611 C47.3511019,38.5875385 47.3790166,38.4864872 47.38039,38.3833439 L47.38039,38.3833439 C47.4225383,38.0477784 47.0869728,37.7551718 46.7522179,37.5452407 C45.7531241,36.950213 44.7176408,36.4185296 43.6518844,35.9533309 C43.4006156,35.8722765 42.8972673,35.7020621 42.6881468,35.8276965 L42.6459985,35.8276965 L42.6881468,35.8698448 C42.7618763,35.8850449 42.8325534,35.9124391 42.8972673,35.9508993 L42.9394156,35.9508993 C43.2204476,36.1083595 43.4868279,36.2906482 43.7353705,36.4955853 C45.2016459,37.5428091 45.2016459,38.0461573 45.2016459,38.0461573 C45.3230318,38.5318759 45.1412573,39.0430167 44.7404459,39.3430288 L44.7404459,39.3430288 C44.663806,39.3884997 44.5779414,39.4161979 44.4891771,39.4240833 C44.2418475,39.4870058 43.9827001,39.4870058 43.7353705,39.4240833 C43.4183366,39.3461968 43.0963357,39.2901378 42.7716329,39.2563006 L42.6459985,39.2563006 C42.520364,39.2563006 42.3525813,39.2563006 42.310433,39.337355 L42.310433,39.3795034 L42.310433,39.3795034 C42.3139284,39.7035126 42.4329173,40.015643 42.6459985,40.2597549 L42.6459985,40.2597549 C42.6881468,40.3019032 42.7270529,40.3408094 42.7270529,40.3853893 C42.9412738,40.6076526 43.1803323,40.8045563 43.4395217,40.9722237 C43.5033146,41.0232393 43.5736451,41.0654922 43.6486422,41.0978581 C43.6907906,41.0978581 43.6907906,41.1400064 43.7296967,41.1400064 L43.7296967,41.1400064 C43.8553311,41.1821547 43.9809656,41.2656409 44.1066,41.3077892 C44.1487483,41.3077892 44.1876545,41.3499375 44.2322344,41.3077892 C44.2434797,41.3080119 44.2543302,41.3036429 44.2622833,41.2956897 C44.2702364,41.2877366 44.2746055,41.2768861 44.2743828,41.2656409 C44.3630128,41.1717285 44.4613706,41.0874994 44.5677999,41.014372 C44.645366,40.9690145 44.715829,40.9124803 44.7769205,40.8465892 C44.7987641,40.8242711 44.8271595,40.8095055 44.8579749,40.8044409 C45.0254021,40.7173888 45.2171412,40.6888562 45.402661,40.7233865 L45.6960781,40.7233865 C45.7665518,40.7333196 45.8363794,40.7473934 45.9051987,40.7655348 C46.1133418,40.7994899 46.2966048,40.9218623 46.4077364,41.1011003 C46.4401023,41.1760974 46.4823551,41.246428 46.5333708,41.3102208 C46.5371237,41.341457 46.5521033,41.3702639 46.5755191,41.3912753 C46.7536086,41.8142392 46.8116624,42.2781088 46.7433019,42.7319162 C46.7433019,42.7740645 46.6622474,43.1088195 46.6176675,43.444385 C46.492033,43.8634366 46.3242503,44.7412565 46.5755191,45.0784431 L46.5755191,45.0784431 L46.6176675,45.1205914 L46.6598158,45.1627397 C46.7019641,45.1627397 46.7019641,45.1205914 46.7019641,45.0816853 L46.7019641,45.0816853 L46.7019641,45.0006308 L46.7019641,45.0006308 C46.7507514,44.8914855 46.7927104,44.7794144 46.8275985,44.6650653 C46.8810046,44.5310543 46.951278,44.4043988 47.0367191,44.288162 C47.1177735,44.1203793 47.2045018,43.9947448 47.2458396,43.9112587 C47.2692555,43.8902473 47.2842351,43.8614404 47.2879879,43.8302043 C47.35934,43.7420642 47.4159964,43.6429841 47.4557707,43.5367871 C47.5411672,43.4205218 47.6114373,43.2938722 47.6648912,43.1598838 C47.7386669,43.0280251 47.7950631,42.8871708 47.832674,42.7408322 C47.9137284,42.5730494 47.9583084,42.4052667 48.0004567,42.3217806 C48.0218002,42.2679424 48.0359711,42.2115312 48.042605,42.1539978 C48.077047,42.0602229 48.0914065,41.9602588 48.0847534,41.8605807 C48.0844579,41.6621996 48.0571899,41.4647799 48.0036989,41.2737463 C47.9661864,41.1665026 47.9093175,41.0670507 47.8359161,40.9803291 C47.6882104,40.8788771 47.5481503,40.7667207 47.4168645,40.6447636 C47.3358101,40.5637091 47.4168645,40.5191292 47.4168645,40.5191292 C47.4590128,40.4769809 47.497919,40.4769809 47.542499,40.4380747 C47.6036454,40.392737 47.6758905,40.364735 47.7516195,40.3570203 C47.8772539,40.3148719 47.8772539,40.524803 47.8772539,40.524803 C47.9807445,40.4850234 48.0479562,40.3843682 48.0450367,40.2735341 L48.0450367,40.1924797 C48.1439231,40.099267 48.1860714,40.0149704 48.1439231,39.9314843 Z" id="Path_149" fill="#FFFFFF" fill-rule="nonzero"></path>
                <path d="M37.7948885,35.5318477 C37.7948885,35.5318477 37.4179852,34.1490584 35.1970927,34.1490584 L35.02931,34.1490584 C34.6475855,34.1490579 34.2670271,34.1911912 33.8945474,34.2746929 C33.7760012,34.0958813 33.6908673,33.8970524 33.6432786,33.6878585 C33.5262911,33.2786129 33.5118161,32.8468659 33.6011302,32.4307037 C33.603768,32.3725129 33.6181027,32.31545 33.6432786,32.2629209 C33.6854269,32.2207726 33.6854269,32.1372865 33.724333,32.0951382 L33.724333,32.0951382 C33.8496954,31.7449153 33.8644089,31.3646283 33.7664814,31.0057661 C33.7664814,31.0057661 33.724333,30.9636178 33.7664814,30.9636178 C33.5986986,29.8742457 32.2580577,29.161777 30.9174168,28.7427253 C27.5650039,27.5269083 19.0178101,26.3540501 19.0178101,26.3540501 C18.0540725,26.2729957 16.2100833,26.1449296 15.6653973,26.8152501 L15.6653973,26.8152501 L15.5843428,26.8963045 L15.5421945,26.9384529 C15.5421945,26.9806012 15.6678289,26.9806012 15.7099772,26.9806012 C15.9808858,26.9712366 16.2510785,27.0138841 16.5059321,27.1062356 C16.5520227,27.100628 16.5981832,27.1161141 16.6315666,27.1483839 L16.6315666,27.1483839 C17.2597387,27.3161667 18.2234763,27.6095839 19.8996828,28.1956077 L19.8996828,28.1956077 C25.8498913,30.2908657 26.3102807,32.0051677 26.3102807,32.0051677 C27.6509216,35.0641634 25.9333774,36.7817076 25.9333774,36.7817076 L25.9333774,36.7817076 C25.7319972,36.9953105 25.4897001,37.166214 25.2209087,37.2842453 C24.4356896,37.729134 23.5642331,38.0005486 22.6652612,38.0802002 C20.8634204,38.1612547 19.2293623,38.4157657 19.2293623,38.4157657 C19.2293623,38.4157657 19.0615795,38.457914 18.852459,38.4968202 C18.4334074,38.5778747 17.846573,38.748089 17.7630869,39.0836545 C17.7209386,39.164709 17.7630869,39.2514373 17.7630869,39.2927751 L17.7630869,39.2927751 C18.1137577,40.3642151 18.8055237,41.2914092 19.7327105,41.9327191 L19.7748589,41.9748675 C19.9223783,42.0821139 20.0764073,42.1801077 20.2360588,42.2682846 C21.1703855,42.8215238 22.1695312,43.2571187 23.2107578,43.5651561 C23.4620267,43.6462106 23.7554439,43.6907906 24.0067127,43.7742767 L24.0067127,43.7742767 C24.0877672,43.816425 24.2158332,43.816425 24.3001299,43.8553311 L24.3001299,43.8553311 C24.7613298,43.9363856 25.2217192,44.0231139 25.6829191,44.0644517 C25.8130143,44.1202567 25.9641698,44.0877502 26.0598224,43.9833972 C26.111564,43.9355829 26.1541403,43.8787229 26.1854568,43.8156145 C26.4122796,43.4214939 26.6643442,43.0424493 26.940074,42.6808519 C27.1491945,42.3874347 27.3591256,42.1361659 27.5269083,41.884897 C27.6017539,41.7797993 27.6858449,41.6816027 27.7781772,41.5914798 C28.2635602,41.1685515 28.8592747,40.8924819 29.4957214,40.7955249 C29.8726247,40.7144705 30.2081902,40.6277422 30.5016073,40.5864044 C30.7649953,40.5429605 31.0308236,40.5158904 31.2975622,40.5053499 C32.0131078,40.483114 32.717242,40.688593 33.3085236,41.0921843 C33.5597925,41.3013048 33.7697235,41.5112359 33.9788441,41.6790186 C34.04089,41.7438785 34.0970392,41.8141328 34.1466268,41.8889497 C35.0910986,43.1741852 35.7094206,44.6695062 35.9484677,46.246438 C35.9484677,46.4555585 36.0741021,47.6292272 36.1575882,48.8020854 C36.1997365,50.3939952 36.4088571,53.4108425 37.5825258,54.2489457 L37.6246741,54.2910941 L37.6246741,54.2910941 C37.6668224,54.3332424 37.7503085,54.3721485 37.7924568,54.4167285 C37.8346052,54.4167285 37.8735113,54.4588768 37.9180913,54.4588768 C37.9991457,54.4167285 37.9991457,54.2910941 37.9991457,54.207608 L37.9991457,54.1654596 C38.0030866,54.065903 37.9888026,53.9664643 37.9569974,53.8720425 L37.9569974,53.8720425 C37.9462673,53.4651337 37.9734023,53.0581088 38.0380519,52.6562254 L38.2893207,51.1478017 C38.4149552,50.5609674 38.5405896,50.0130392 38.6248862,49.6815264 C38.6670346,49.4724059 38.7059407,49.3046231 38.7059407,49.3046231 C38.8315751,48.9277198 38.9572096,48.550006 39.0415062,48.215251 C39.2012504,47.7359006 39.3271935,47.2459411 39.4184095,46.7489757 C39.532804,46.2517536 39.6167166,45.7480074 39.6696784,45.240552 C39.7419756,44.726611 39.7839265,44.2088564 39.7953128,43.68998 L39.7953128,43.0618079 C39.7793789,42.7237794 39.737376,42.3874852 39.6696784,42.0559219 C39.5386656,41.3916018 39.2672959,40.7629194 38.8737235,40.2119328 C38.6417683,39.9007813 38.3583159,39.6315838 38.0356203,39.4159779 C37.4324515,39.1890144 36.8446515,38.9231371 36.2759277,38.620023 C35.9403622,38.4109024 36.1502933,38.2009714 36.1502933,38.2009714 C36.273626,38.0860457 36.3859679,37.9598645 36.4858588,37.8240681 C36.678542,37.6190359 36.9053477,37.4490002 37.1561793,37.3215304 C37.5752309,37.1124098 37.7008653,37.740582 37.7008653,37.740582 C38.1199169,37.2380443 38.1199169,36.9024788 38.0777686,36.734696 C38.0508928,36.6570089 38.0081029,36.5857843 37.9521341,36.5255755 C37.9766303,36.1817254 37.9191253,35.8369732 37.7843514,35.5196895 L37.7948885,35.5318477 Z" id="Path_150" fill="#FFFFFF" fill-rule="nonzero"></path>
                <g id="Mask_Group_11-Clipped" transform="translate(8.600362, 50.501229)">
                    <mask id="mask-2" fill="white">
                        <use xlink:href="#path-1"></use>
                    </mask>
                    <g id="Path_152"></g>
                    <g id="Mask_Group_11" mask="url(#mask-2)" fill="#FFFFFF" fill-rule="nonzero">
                        <g transform="translate(-3.489636, -10.660810)" id="Path_151">
                            <polygon points="0.0427173729 11.3211622 57.9917996 0.00757942666 63.4808083 28.2072398 5.53172603 39.5200121"></polygon>
                        </g>
                    </g>
                </g>
            </g>
        </g>
    </g>
</svg>